<svg xmlns="http://www.w3.org/2000/svg" viewBox="0 0 32 32">
<path fill="#25D366" d="M16 0C7.163 0 0 7.163 0 16c0 2.821.735 5.473 2.022 7.778L0 32l8.422-2.186A15.93 15.93 0 0 0 16 32c8.837 0 16-7.163 16-16S24.837 0 16 0z"></path>
<path fill="#fff" d="M24.49 19.38c-.37-.19-2.17-1.07-2.51-1.19-.34-.12-.59-.19-.84.19-.25.37-.96 1.19-1.18 1.44-.22.25-.43.28-.8.09-.37-.19-1.56-.57-2.97-1.82-1.1-.98-1.84-2.19-2.06-2.56-.22-.37-.02-.57.17-.76.17-.17.37-.43.56-.65.19-.22.25-.37.37-.62.12-.25.06-.47-.03-.65-.09-.19-.84-2.03-1.15-2.78-.3-.72-.61-.62-.84-.63h-.72c-.25 0-.65.09-.99.47-.34.37-1.31 1.28-1.31 3.12s1.34 3.62 1.53 3.87c.19.25 2.64 4.03 6.39 5.65.89.38 1.59.61 2.13.78.9.29 1.72.25 2.37.15.72-.11 2.17-.89 2.48-1.75.31-.87.31-1.61.22-1.75-.09-.13-.34-.22-.71-.41z"></path>
</svg>